<svg width="3118" height="1065.1" xmlns="http://www.w3.org/2000/svg" xmlns:xlink="http://www.w3.org/1999/xlink" xml:space="preserve" overflow="hidden"><defs><clipPath id="clip0"><rect x="275" y="714" width="3118" height="1065"/></clipPath></defs><g clip-path="url(#clip0)" transform="translate(-275 -714)"><rect x="275" y="714" width="3118" height="1065" fill="#FFFFFF"/><path d="M1254.81 1722C1221.78 1722 1195 1695.22 1195 1662.19L1195 914.81C1195 881.778 1221.78 855 1254.81 855L1892.19 855C1925.22 855 1952 881.778 1952 914.81L1952 1662.19C1952 1695.22 1925.22 1722 1892.19 1722Z" fill="#F2F2F2" fill-rule="evenodd"/><path d="M0.572906-0.00357376 5.26989 752.965 4.12408 752.972-0.572906 0.00357376ZM18.4181 748.298 4.83993 775.884-9.08135 748.47Z" transform="matrix(1 0 0 -1 1425.5 1605.38)"/><rect x="1332.5" y="1446.5" width="186" height="82.0001" stroke="#000000" stroke-width="4.58333" stroke-miterlimit="8" fill="#DCEAF7"/><text font-family="Arial,Arial_MSFontService,sans-serif" font-weight="400" font-size="50" transform="matrix(1 0 0 1 1366.08 1506)">Conv</text><rect x="1332.5" y="1157.5" width="186" height="82.0001" stroke="#000000" stroke-width="4.58333" stroke-miterlimit="8" fill="#DCEAF7"/><text font-family="Arial,Arial_MSFontService,sans-serif" font-weight="400" font-size="50" transform="matrix(1 0 0 1 1370.38 1217)">SSM</text><path d="M1425.5 1369.5C1411.14 1369.5 1399.5 1357.86 1399.5 1343.5 1399.5 1329.14 1411.14 1317.5 1425.5 1317.5 1439.86 1317.5 1451.5 1329.14 1451.5 1343.5 1451.5 1357.86 1439.86 1369.5 1425.5 1369.5Z" stroke="#000000" stroke-width="1.14583" stroke-miterlimit="8" fill="#FFE9D5" fill-rule="evenodd"/><path d="M1430.74 1337.25C1428.34 1337.32 1426.19 1338.01 1424.29 1339.33 1422.39 1340.64 1420.92 1342.41 1419.87 1344.63 1418.83 1346.85 1418.3 1349.31 1418.3 1352.02 1418.3 1353.41 1418.53 1354.54 1418.99 1355.39 1419.44 1356.24 1420.01 1356.82 1420.69 1357.15 1421.37 1357.47 1422.11 1357.63 1422.9 1357.63 1424.7 1357.63 1426.27 1357.04 1427.59 1355.86 1428.92 1354.68 1429.99 1352.88 1430.8 1350.46 1431.62 1348.04 1432.03 1345.7 1432.03 1343.42 1432.03 1340.97 1431.6 1338.91 1430.74 1337.25ZM1434.87 1333.62 1443.41 1333.62 1442.61 1337.17 1433.83 1337.17 1433.77 1337.38C1434.79 1338.6 1435.53 1339.83 1435.97 1341.06 1436.42 1342.3 1436.65 1343.65 1436.65 1345.12 1436.65 1347.78 1436.07 1350.26 1434.93 1352.54 1433.78 1354.82 1432.18 1356.59 1430.12 1357.85 1428.06 1359.1 1425.73 1359.73 1423.14 1359.73 1420.18 1359.73 1417.93 1358.93 1416.38 1357.35 1414.83 1355.76 1414.06 1353.52 1414.06 1350.62 1414.06 1348.63 1414.36 1346.75 1414.96 1344.97 1415.56 1343.19 1416.45 1341.55 1417.62 1340.05 1418.79 1338.56 1420.12 1337.35 1421.61 1336.41 1423.09 1335.48 1424.86 1334.79 1426.92 1334.32 1428.98 1333.85 1431.63 1333.62 1434.87 1333.62Z" fill-rule="evenodd"/><text fill="#000000" fill-opacity="0" font-family="Arial,Arial_MSFontService,sans-serif" font-size="26.1035" x="1414.06" y="1356.46">ğœ</text><path d="M1581.5 1605.5 1539.49 1687.5 1311.51 1687.5 1269.5 1605.5Z" stroke="#042433" stroke-width="1.14583" stroke-miterlimit="8" fill="#E2F0D9" fill-rule="evenodd"/><text font-family="Arial,Arial_MSFontService,sans-serif" font-weight="400" font-size="64" transform="matrix(1 0 0 1 1337.49 1667)">Linear</text><path d="M1925.5 1605.5 1883.49 1687.5 1655.51 1687.5 1613.5 1605.5Z" stroke="#042433" stroke-width="1.14583" stroke-miterlimit="8" fill="#E2F0D9" fill-rule="evenodd"/><text font-family="Arial,Arial_MSFontService,sans-serif" font-weight="400" font-size="64" transform="matrix(1 0 0 1 1681.17 1667)">Linear</text><path d="M1269.5 970.5 1311.51 888.5 1539.49 888.5 1581.5 970.5Z" stroke="#042433" stroke-width="1.14583" stroke-miterlimit="8" fill="#E2F0D9" fill-rule="evenodd"/><text font-family="Arial,Arial_MSFontService,sans-serif" font-weight="400" font-size="64" transform="matrix(1 0 0 1 1337.49 954)">Linear</text><path d="M0 0 552.861 0 552.861 317.935" stroke="#000000" stroke-width="2.29167" stroke-miterlimit="8" fill="none" fill-rule="evenodd" transform="matrix(-1.83697e-16 -1 -1 1.83697e-16 1768.93 1604.86)"/><path d="M1766.5 1373.5C1752.14 1373.5 1740.5 1361.86 1740.5 1347.5 1740.5 1333.14 1752.14 1321.5 1766.5 1321.5 1780.86 1321.5 1792.5 1333.14 1792.5 1347.5 1792.5 1361.86 1780.86 1373.5 1766.5 1373.5Z" stroke="#000000" stroke-width="1.14583" stroke-miterlimit="8" fill="#FFE9D5" fill-rule="evenodd"/><path d="M1770.98 1337.34C1768.58 1337.41 1766.44 1338.1 1764.54 1339.42 1762.64 1340.74 1761.17 1342.5 1760.12 1344.72 1759.07 1346.94 1758.55 1349.41 1758.55 1352.11 1758.55 1353.51 1758.78 1354.63 1759.23 1355.48 1759.69 1356.33 1760.26 1356.92 1760.94 1357.24 1761.62 1357.56 1762.35 1357.72 1763.14 1357.72 1764.95 1357.72 1766.52 1357.13 1767.84 1355.95 1769.17 1354.77 1770.24 1352.97 1771.05 1350.55 1771.86 1348.14 1772.27 1345.79 1772.27 1343.52 1772.27 1341.06 1771.84 1339 1770.98 1337.34ZM1775.12 1333.71 1783.66 1333.71 1782.85 1337.26 1774.07 1337.26 1774.02 1337.47C1775.04 1338.69 1775.77 1339.92 1776.22 1341.15 1776.67 1342.39 1776.89 1343.74 1776.89 1345.21 1776.89 1347.88 1776.32 1350.35 1775.17 1352.63 1774.03 1354.92 1772.42 1356.68 1770.36 1357.94 1768.31 1359.19 1765.98 1359.82 1763.38 1359.82 1760.43 1359.82 1758.18 1359.03 1756.63 1357.44 1755.08 1355.86 1754.31 1353.61 1754.31 1350.71 1754.31 1348.73 1754.61 1346.84 1755.2 1345.06 1755.8 1343.28 1756.69 1341.64 1757.86 1340.15 1759.04 1338.65 1760.37 1337.44 1761.85 1336.51 1763.34 1335.58 1765.11 1334.88 1767.17 1334.41 1769.23 1333.95 1771.88 1333.71 1775.12 1333.71Z" fill-rule="evenodd"/><text fill="#000000" fill-opacity="0" font-family="Arial,Arial_MSFontService,sans-serif" font-size="26.1035" x="1754.31" y="1356.55">ğœ</text><path d="M1408.04 1073.25C1397.35 1063.67 1396.46 1047.24 1406.04 1036.56 1415.62 1025.88 1432.05 1024.98 1442.74 1034.56 1453.42 1044.15 1454.31 1060.57 1444.73 1071.26 1435.15 1081.94 1418.72 1082.83 1408.04 1073.25Z" fill="#FFE9D5" fill-rule="evenodd"/><path d="M1406.04 1036.56 1444.73 1071.26M1408.04 1073.25 1442.74 1034.56" stroke="#000000" stroke-width="1.14583" stroke-miterlimit="8" fill="none" fill-rule="evenodd"/><path d="M1408.04 1073.25C1397.35 1063.67 1396.46 1047.24 1406.04 1036.56 1415.62 1025.88 1432.05 1024.98 1442.74 1034.56 1453.42 1044.15 1454.31 1060.57 1444.73 1071.26 1435.15 1081.94 1418.72 1082.83 1408.04 1073.25Z" stroke="#000000" stroke-width="1.14583" stroke-miterlimit="8" fill="none" fill-rule="evenodd"/><text font-family="Arial,Arial_MSFontService,sans-serif" font-weight="400" font-size="64" transform="matrix(-1.83697e-16 -1 1 -1.83697e-16 1263.44 1390)">Mamba</text><path d="M1275 743.167C1275 733.686 1282.69 726 1292.17 726L1567.83 726C1577.31 726 1585 733.686 1585 743.167L1585 811.833C1585 821.314 1577.31 829 1567.83 829L1292.17 829C1282.69 829 1275 821.314 1275 811.833Z" fill="#F2F2F2" fill-rule="evenodd"/><text font-family="Arial,Arial_MSFontService,sans-serif" font-weight="400" font-size="64" transform="matrix(1 0 0 1 1367.77 801)">FFN</text><path d="M3124 1192.83C3124 1174.7 3138.7 1160 3156.83 1160L3333.17 1160C3351.3 1160 3366 1174.7 3366 1192.83L3366 1324.17C3366 1342.3 3351.3 1357 3333.17 1357L3156.83 1357C3138.7 1357 3124 1342.3 3124 1324.17Z" stroke="#7F7F7F" stroke-width="2.29167" stroke-miterlimit="8" fill="#FFFFFF" fill-rule="evenodd"/><path d="M3164.08 1294.42 3151.5 1244.5" stroke="#BFBFBF" stroke-width="4.58333" stroke-miterlimit="8" fill="none" fill-rule="evenodd"/><path d="M3144 1236.5C3144 1232.36 3147.13 1229 3151 1229 3154.87 1229 3158 1232.36 3158 1236.5 3158 1240.64 3154.87 1244 3151 1244 3147.13 1244 3144 1240.64 3144 1236.5Z" fill="#3289BD" fill-rule="evenodd"/><path d="M3207 1248.5C3207 1244.36 3210.13 1241 3214 1241 3217.87 1241 3221 1244.36 3221 1248.5 3221 1252.64 3217.87 1256 3214 1256 3210.13 1256 3207 1252.64 3207 1248.5Z" fill="#3289BD" fill-rule="evenodd"/><path d="M3255 1281.5C3255 1277.36 3258.36 1274 3262.5 1274 3266.64 1274 3270 1277.36 3270 1281.5 3270 1285.64 3266.64 1289 3262.5 1289 3258.36 1289 3255 1285.64 3255 1281.5Z" fill="#3289BD" fill-rule="evenodd"/><path d="M3316 1272.5C3316 1268.36 3319.36 1265 3323.5 1265 3327.64 1265 3331 1268.36 3331 1272.5 3331 1276.64 3327.64 1280 3323.5 1280 3319.36 1280 3316 1276.64 3316 1272.5Z" fill="#3289BD" fill-rule="evenodd"/><path d="M3270 1222C3270 1218.13 3273.36 1215 3277.5 1215 3281.64 1215 3285 1218.13 3285 1222 3285 1225.87 3281.64 1229 3277.5 1229 3273.36 1229 3270 1225.87 3270 1222Z" fill="#3289BD" fill-rule="evenodd"/><path d="M3248 1175.5C3248 1171.36 3251.36 1168 3255.5 1168 3259.64 1168 3263 1171.36 3263 1175.5 3263 1179.64 3259.64 1183 3255.5 1183 3251.36 1183 3248 1179.64 3248 1175.5Z" fill="#3289BD" fill-rule="evenodd"/><path d="M3227 1326C3227 1322.13 3230.13 1319 3234 1319 3237.87 1319 3241 1322.13 3241 1326 3241 1329.87 3237.87 1333 3234 1333 3230.13 1333 3227 1329.87 3227 1326Z" fill="#3289BD" fill-rule="evenodd"/><path d="M3156 1301.5C3156 1297.36 3159.36 1294 3163.5 1294 3167.64 1294 3171 1297.36 3171 1301.5 3171 1305.64 3167.64 1309 3163.5 1309 3159.36 1309 3156 1305.64 3156 1301.5Z" fill="#3289BD" fill-rule="evenodd"/><path d="M3287 1333.5C3287 1329.36 3290.36 1326 3294.5 1326 3298.64 1326 3302 1329.36 3302 1333.5 3302 1337.64 3298.64 1341 3294.5 1341 3290.36 1341 3287 1337.64 3287 1333.5Z" fill="#3289BD" fill-rule="evenodd"/><path d="M3227.45 1326.85 3169.5 1307.5" stroke="#BFBFBF" stroke-width="4.58333" stroke-miterlimit="8" fill="none" fill-rule="evenodd"/><path d="M3287.54 1334.4 3241.5 1326.5" stroke="#BFBFBF" stroke-width="4.58333" stroke-miterlimit="8" fill="none" fill-rule="evenodd"/><path d="M3268.5 1287.5 3295.48 1327.37" stroke="#BFBFBF" stroke-width="4.58333" stroke-miterlimit="8" fill="none" fill-rule="evenodd"/><path d="M0 0 9.48353 46.7857" stroke="#BFBFBF" stroke-width="4.58333" stroke-miterlimit="8" fill="none" fill-rule="evenodd" transform="matrix(1 0 0 -1 3268.5 1276.29)"/><path d="M3318.59 1267.59 3282.5 1227.5" stroke="#BFBFBF" stroke-width="4.58333" stroke-miterlimit="8" fill="none" fill-rule="evenodd"/><path d="M3255.5 1282.31 3219.5 1254.5" stroke="#BFBFBF" stroke-width="4.58333" stroke-miterlimit="8" fill="none" fill-rule="evenodd"/><path d="M3234.48 1319.31 3214.5 1256.5" stroke="#BFBFBF" stroke-width="4.58333" stroke-miterlimit="8" fill="none" fill-rule="evenodd"/><path d="M3206.9 1249.14 3158.5 1237.5" stroke="#BFBFBF" stroke-width="4.58333" stroke-miterlimit="8" fill="none" fill-rule="evenodd"/><path d="M0 0 93.8836 50.9053" stroke="#BFBFBF" stroke-width="4.58333" stroke-miterlimit="8" fill="none" fill-rule="evenodd" transform="matrix(-1 0 0 1 3250.38 1181.5)"/><path d="M0 0 35.9965 60.4018" stroke="#BFBFBF" stroke-width="4.58333" stroke-miterlimit="8" fill="none" fill-rule="evenodd" transform="matrix(1 0 0 -1 3219.5 1243.9)"/><path d="M3272.13 1217.74 3260.5 1181.5" stroke="#BFBFBF" stroke-width="4.58333" stroke-miterlimit="8" fill="none" fill-rule="evenodd"/><path d="M0 0 20.2414 15.9691" stroke="#BFBFBF" stroke-width="4.58333" stroke-miterlimit="8" fill="none" fill-rule="evenodd" transform="matrix(-1 0 0 1 3305.74 1206.5)"/><path d="M3305 1206C3305 1202.13 3308.36 1199 3312.5 1199 3316.64 1199 3320 1202.13 3320 1206 3320 1209.87 3316.64 1213 3312.5 1213 3308.36 1213 3305 1209.87 3305 1206Z" fill="#3289BD" fill-rule="evenodd"/><path d="M3093 1223.83C3093 1205.7 3107.7 1191 3125.83 1191L3302.17 1191C3320.3 1191 3335 1205.7 3335 1223.83L3335 1355.17C3335 1373.3 3320.3 1388 3302.17 1388L3125.83 1388C3107.7 1388 3093 1373.3 3093 1355.17Z" stroke="#7F7F7F" stroke-width="2.29167" stroke-miterlimit="8" fill="#FFFFFF" fill-rule="evenodd"/><path d="M3133.08 1326.42 3120.5 1276.5" stroke="#BFBFBF" stroke-width="4.58333" stroke-miterlimit="8" fill="none" fill-rule="evenodd"/><path d="M3113 1268.5C3113 1264.36 3116.13 1261 3120 1261 3123.87 1261 3127 1264.36 3127 1268.5 3127 1272.64 3123.87 1276 3120 1276 3116.13 1276 3113 1272.64 3113 1268.5Z" fill="#3289BD" fill-rule="evenodd"/><path d="M3176 1280.5C3176 1276.36 3179.13 1273 3183 1273 3186.87 1273 3190 1276.36 3190 1280.5 3190 1284.64 3186.87 1288 3183 1288 3179.13 1288 3176 1284.64 3176 1280.5Z" fill="#3289BD" fill-rule="evenodd"/><path d="M3224 1313.5C3224 1309.36 3227.36 1306 3231.5 1306 3235.64 1306 3239 1309.36 3239 1313.5 3239 1317.64 3235.64 1321 3231.5 1321 3227.36 1321 3224 1317.64 3224 1313.5Z" fill="#3289BD" fill-rule="evenodd"/><path d="M3285 1304.5C3285 1300.36 3288.36 1297 3292.5 1297 3296.64 1297 3300 1300.36 3300 1304.5 3300 1308.64 3296.64 1312 3292.5 1312 3288.36 1312 3285 1308.64 3285 1304.5Z" fill="#3289BD" fill-rule="evenodd"/><path d="M3239 1254C3239 1250.13 3242.36 1247 3246.5 1247 3250.64 1247 3254 1250.13 3254 1254 3254 1257.87 3250.64 1261 3246.5 1261 3242.36 1261 3239 1257.87 3239 1254Z" fill="#3289BD" fill-rule="evenodd"/><path d="M3217 1207.5C3217 1203.36 3220.36 1200 3224.5 1200 3228.64 1200 3232 1203.36 3232 1207.5 3232 1211.64 3228.64 1215 3224.5 1215 3220.36 1215 3217 1211.64 3217 1207.5Z" fill="#3289BD" fill-rule="evenodd"/><path d="M3196 1357.5C3196 1353.36 3199.13 1350 3203 1350 3206.87 1350 3210 1353.36 3210 1357.5 3210 1361.64 3206.87 1365 3203 1365 3199.13 1365 3196 1361.64 3196 1357.5Z" fill="#3289BD" fill-rule="evenodd"/><path d="M3125 1333C3125 1329.13 3128.36 1326 3132.5 1326 3136.64 1326 3140 1329.13 3140 1333 3140 1336.87 3136.64 1340 3132.5 1340 3128.36 1340 3125 1336.87 3125 1333Z" fill="#3289BD" fill-rule="evenodd"/><path d="M3256 1365.5C3256 1361.36 3259.36 1358 3263.5 1358 3267.64 1358 3271 1361.36 3271 1365.5 3271 1369.64 3267.64 1373 3263.5 1373 3259.36 1373 3256 1369.64 3256 1365.5Z" fill="#3289BD" fill-rule="evenodd"/><path d="M3196.45 1357.85 3138.5 1338.5" stroke="#BFBFBF" stroke-width="4.58333" stroke-miterlimit="8" fill="none" fill-rule="evenodd"/><path d="M3256.54 1366.4 3210.5 1358.5" stroke="#BFBFBF" stroke-width="4.58333" stroke-miterlimit="8" fill="none" fill-rule="evenodd"/><path d="M3237.5 1318.5 3264.48 1358.37" stroke="#BFBFBF" stroke-width="4.58333" stroke-miterlimit="8" fill="none" fill-rule="evenodd"/><path d="M0 0 9.48353 46.7857" stroke="#BFBFBF" stroke-width="4.58333" stroke-miterlimit="8" fill="none" fill-rule="evenodd" transform="matrix(1 0 0 -1 3237.5 1308.29)"/><path d="M3287.59 1299.59 3251.5 1259.5" stroke="#BFBFBF" stroke-width="4.58333" stroke-miterlimit="8" fill="none" fill-rule="evenodd"/><path d="M3224.5 1313.31 3188.5 1285.5" stroke="#BFBFBF" stroke-width="4.58333" stroke-miterlimit="8" fill="none" fill-rule="evenodd"/><path d="M3203.48 1351.31 3183.5 1288.5" stroke="#BFBFBF" stroke-width="4.58333" stroke-miterlimit="8" fill="none" fill-rule="evenodd"/><path d="M3175.9 1281.14 3127.5 1269.5" stroke="#BFBFBF" stroke-width="4.58333" stroke-miterlimit="8" fill="none" fill-rule="evenodd"/><path d="M0 0 93.8836 50.9053" stroke="#BFBFBF" stroke-width="4.58333" stroke-miterlimit="8" fill="none" fill-rule="evenodd" transform="matrix(-1 0 0 1 3219.38 1212.5)"/><path d="M0 0 35.9965 60.4018" stroke="#BFBFBF" stroke-width="4.58333" stroke-miterlimit="8" fill="none" fill-rule="evenodd" transform="matrix(1 0 0 -1 3188.5 1275.9)"/><path d="M3241.13 1248.74 3229.5 1212.5" stroke="#BFBFBF" stroke-width="4.58333" stroke-miterlimit="8" fill="none" fill-rule="evenodd"/><path d="M0 0 20.2414 15.9691" stroke="#BFBFBF" stroke-width="4.58333" stroke-miterlimit="8" fill="none" fill-rule="evenodd" transform="matrix(-1 0 0 1 3274.74 1238.5)"/><path d="M3274 1238C3274 1234.13 3277.13 1231 3281 1231 3284.87 1231 3288 1234.13 3288 1238 3288 1241.87 3284.87 1245 3281 1245 3277.13 1245 3274 1241.87 3274 1238Z" fill="#3289BD" fill-rule="evenodd"/><path d="M3059 1254.83C3059 1236.7 3073.7 1222 3091.83 1222L3268.17 1222C3286.3 1222 3301 1236.7 3301 1254.83L3301 1386.17C3301 1404.3 3286.3 1419 3268.17 1419L3091.83 1419C3073.7 1419 3059 1404.3 3059 1386.17Z" stroke="#7F7F7F" stroke-width="2.29167" stroke-miterlimit="8" fill="#FFFFFF" fill-rule="evenodd"/><path d="M3099.08 1357.42 3086.5 1307.5" stroke="#FF0000" stroke-width="4.58333" stroke-miterlimit="8" fill="none" fill-rule="evenodd"/><path d="M3079 1299.5C3079 1295.36 3082.36 1292 3086.5 1292 3090.64 1292 3094 1295.36 3094 1299.5 3094 1303.64 3090.64 1307 3086.5 1307 3082.36 1307 3079 1303.64 3079 1299.5Z" fill="#3289BD" fill-rule="evenodd"/><path d="M3142 1311.5C3142 1307.36 3145.36 1304 3149.5 1304 3153.64 1304 3157 1307.36 3157 1311.5 3157 1315.64 3153.64 1319 3149.5 1319 3145.36 1319 3142 1315.64 3142 1311.5Z" fill="#3289BD" fill-rule="evenodd"/><path d="M3191 1344.5C3191 1340.36 3194.13 1337 3198 1337 3201.87 1337 3205 1340.36 3205 1344.5 3205 1348.64 3201.87 1352 3198 1352 3194.13 1352 3191 1348.64 3191 1344.5Z" fill="#3289BD" fill-rule="evenodd"/><path d="M3252 1335.5C3252 1331.36 3255.13 1328 3259 1328 3262.87 1328 3266 1331.36 3266 1335.5 3266 1339.64 3262.87 1343 3259 1343 3255.13 1343 3252 1339.64 3252 1335.5Z" fill="#3289BD" fill-rule="evenodd"/><path d="M3205 1285C3205 1281.13 3208.36 1278 3212.5 1278 3216.64 1278 3220 1281.13 3220 1285 3220 1288.87 3216.64 1292 3212.5 1292 3208.36 1292 3205 1288.87 3205 1285Z" fill="#3289BD" fill-rule="evenodd"/><path d="M3183 1238.5C3183 1234.36 3186.36 1231 3190.5 1231 3194.64 1231 3198 1234.36 3198 1238.5 3198 1242.64 3194.64 1246 3190.5 1246 3186.36 1246 3183 1242.64 3183 1238.5Z" fill="#3289BD" fill-rule="evenodd"/><path d="M3162 1388.5C3162 1384.36 3165.36 1381 3169.5 1381 3173.64 1381 3177 1384.36 3177 1388.5 3177 1392.64 3173.64 1396 3169.5 1396 3165.36 1396 3162 1392.64 3162 1388.5Z" fill="#3289BD" fill-rule="evenodd"/><path d="M3092 1364.5C3092 1360.36 3095.13 1357 3099 1357 3102.87 1357 3106 1360.36 3106 1364.5 3106 1368.64 3102.87 1372 3099 1372 3095.13 1372 3092 1368.64 3092 1364.5Z" fill="#3289BD" fill-rule="evenodd"/><path d="M3223 1396.5C3223 1392.36 3226.13 1389 3230 1389 3233.87 1389 3237 1392.36 3237 1396.5 3237 1400.64 3233.87 1404 3230 1404 3226.13 1404 3223 1400.64 3223 1396.5Z" fill="#3289BD" fill-rule="evenodd"/><path d="M3162.45 1388.85 3104.5 1369.5" stroke="#FF0000" stroke-width="4.58333" stroke-miterlimit="8" fill="none" fill-rule="evenodd"/><path d="M3223.54 1397.4 3177.5 1389.5" stroke="#FF0000" stroke-width="4.58333" stroke-miterlimit="8" fill="none" fill-rule="evenodd"/><path d="M3203.5 1349.5 3230.48 1389.37" stroke="#FF0000" stroke-width="4.58333" stroke-miterlimit="8" fill="none" fill-rule="evenodd"/><path d="M0 0 9.48353 46.7857" stroke="#FF0000" stroke-width="4.58333" stroke-miterlimit="8" fill="none" fill-rule="evenodd" transform="matrix(1 0 0 -1 3203.5 1339.29)"/><path d="M3254.59 1330.59 3218.5 1290.5" stroke="#FF0000" stroke-width="4.58333" stroke-miterlimit="8" fill="none" fill-rule="evenodd"/><path d="M3191.5 1344.31 3155.5 1316.5" stroke="#FF0000" stroke-width="4.58333" stroke-miterlimit="8" fill="none" fill-rule="evenodd"/><path d="M3169.48 1382.31 3149.5 1319.5" stroke="#FF0000" stroke-width="4.58333" stroke-miterlimit="8" fill="none" fill-rule="evenodd"/><path d="M3142.9 1312.14 3094.5 1300.5" stroke="#FF0000" stroke-width="4.58333" stroke-miterlimit="8" fill="none" fill-rule="evenodd"/><path d="M0 0 93.8836 50.9053" stroke="#FF0000" stroke-width="4.58333" stroke-miterlimit="8" fill="none" fill-rule="evenodd" transform="matrix(-1 0 0 1 3185.38 1244.5)"/><path d="M0 0 35.9965 60.4018" stroke="#FF0000" stroke-width="4.58333" stroke-miterlimit="8" fill="none" fill-rule="evenodd" transform="matrix(1 0 0 -1 3155.5 1306.9)"/><path d="M3208.13 1280.74 3196.5 1244.5" stroke="#FF0000" stroke-width="4.58333" stroke-miterlimit="8" fill="none" fill-rule="evenodd"/><path d="M0 0 20.2414 15.9691" stroke="#FF0000" stroke-width="4.58333" stroke-miterlimit="8" fill="none" fill-rule="evenodd" transform="matrix(-1 0 0 1 3240.74 1269.5)"/><path d="M3240 1269C3240 1265.13 3243.36 1262 3247.5 1262 3251.64 1262 3255 1265.13 3255 1269 3255 1272.87 3251.64 1276 3247.5 1276 3243.36 1276 3240 1272.87 3240 1269Z" fill="#3289BD" fill-rule="evenodd"/><text font-family="Arial,Arial_MSFontService,sans-serif" font-weight="400" font-size="64" transform="matrix(1 0 0 1 3126.8 1119)">Output</text><path d="M2968.33 1100C2986.93 1100 3002 1115.07 3002 1133.67L3002 1446.33C3002 1464.93 2986.93 1480 2968.33 1480L2833.67 1480C2815.07 1480 2800 1464.93 2800 1446.33L2800 1133.67C2800 1115.07 2815.07 1100 2833.67 1100Z" fill="#F2F2F2" fill-rule="evenodd"/><text font-family="Arial,Arial_MSFontService,sans-serif" font-weight="400" font-size="64" transform="matrix(6.12323e-17 1 -1 6.12323e-17 2915.8 1174)">Sigmoid </text><text font-family="Arial,Arial_MSFontService,sans-serif" font-weight="400" font-size="64" transform="matrix(6.12323e-17 1 -1 6.12323e-17 2838.8 1228)">gate</text><path d="M3002 1287.85 3033.41 1287.85 3033.41 1290.15 3002 1290.15ZM3028.83 1275.25 3056.33 1289 3028.83 1302.75Z"/><rect x="858.5" y="1032.5" width="46.0001" height="45" stroke="#000000" stroke-width="4.58333" stroke-miterlimit="8" fill="#DCEAF7"/><rect x="913.5" y="1032.5" width="46.0001" height="45" stroke="#000000" stroke-width="4.58333" stroke-miterlimit="8" fill="#DCEAF7"/><rect x="969.5" y="1032.5" width="45.0001" height="45" stroke="#000000" stroke-width="4.58333" stroke-miterlimit="8" fill="#DCEAF7"/><rect x="858.5" y="1087.5" width="46.0001" height="45" stroke="#000000" stroke-width="4.58333" stroke-miterlimit="8" fill="#DCEAF7"/><rect x="913.5" y="1087.5" width="46.0001" height="45" stroke="#000000" stroke-width="4.58333" stroke-miterlimit="8" fill="#DCEAF7"/><rect x="969.5" y="1087.5" width="45.0001" height="45" stroke="#000000" stroke-width="4.58333" stroke-miterlimit="8" fill="#DCEAF7"/><rect x="858.5" y="1142.5" width="46.0001" height="45.9998" stroke="#000000" stroke-width="4.58333" stroke-miterlimit="8" fill="#DCEAF7"/><rect x="913.5" y="1142.5" width="46.0001" height="45.9998" stroke="#000000" stroke-width="4.58333" stroke-miterlimit="8" fill="#DCEAF7"/><rect x="969.5" y="1142.5" width="45.0001" height="45.9998" stroke="#000000" stroke-width="4.58333" stroke-miterlimit="8" fill="#DCEAF7"/><text font-family="Arial,Arial_MSFontService,sans-serif" font-weight="400" font-size="64" transform="matrix(1 0 0 1 809.826 917)">Encoded </text><text font-family="Arial,Arial_MSFontService,sans-serif" font-weight="400" font-size="64" transform="matrix(1 0 0 1 826.166 994)">Feature</text><rect x="858.5" y="1329.5" width="46.0001" height="45.9998" stroke="#000000" stroke-width="4.58333" stroke-miterlimit="8" fill="#F2F2F2"/><rect x="913.5" y="1329.5" width="46.0001" height="45.9998" stroke="#000000" stroke-width="4.58333" stroke-miterlimit="8" fill="#F2F2F2"/><rect x="969.5" y="1329.5" width="45.0001" height="45.9998" stroke="#000000" stroke-width="4.58333" stroke-miterlimit="8" fill="#F2F2F2"/><rect x="858.5" y="1385.5" width="46.0001" height="44.9996" stroke="#000000" stroke-width="4.58333" stroke-miterlimit="8" fill="#F2F2F2"/><rect x="913.5" y="1385.5" width="46.0001" height="44.9996" stroke="#000000" stroke-width="4.58333" stroke-miterlimit="8" fill="#F2F2F2"/><rect x="969.5" y="1385.5" width="45.0001" height="44.9996" stroke="#000000" stroke-width="4.58333" stroke-miterlimit="8" fill="#F2F2F2"/><rect x="858.5" y="1440.5" width="46.0001" height="44.9996" stroke="#000000" stroke-width="4.58333" stroke-miterlimit="8" fill="#F2F2F2"/><rect x="913.5" y="1440.5" width="46.0001" height="44.9996" stroke="#000000" stroke-width="4.58333" stroke-miterlimit="8" fill="#F2F2F2"/><rect x="969.5" y="1440.5" width="45.0001" height="44.9996" stroke="#000000" stroke-width="4.58333" stroke-miterlimit="8" fill="#F2F2F2"/><text font-family="Arial,Arial_MSFontService,sans-serif" font-weight="400" font-size="64" transform="matrix(1 0 0 1 817.737 1567)">Adaptive </text><text font-family="Arial,Arial_MSFontService,sans-serif" font-weight="400" font-size="64" transform="matrix(1 0 0 1 780.497 1644)">Embedding</text><path d="M1014 1108.85 1080.82 1108.85 1080.82 1208.34 1078.53 1208.34 1078.53 1110 1079.67 1111.15 1014 1111.15ZM1093.42 1203.76 1079.67 1231.26 1065.92 1203.76Z"/><path d="M0-1.14583 66.8207-1.14583 66.8207 101.568 64.529 101.568 64.529 0 65.6748 1.14583 0 1.14583ZM79.4248 96.9851 65.6748 124.485 51.9248 96.9851Z" transform="matrix(1 0 0 -1 1014 1407.48)"/><path d="M1097.56 1237.91C1108.03 1247.73 1108.55 1264.17 1098.73 1274.64 1088.91 1285.1 1072.47 1285.63 1062 1275.81 1051.54 1265.99 1051.01 1249.55 1060.83 1239.08 1070.65 1228.61 1087.09 1228.09 1097.56 1237.91Z" fill="#FFE9D5" fill-rule="evenodd"/><path d="M1098.73 1274.64 1060.83 1239.08M1097.56 1237.91 1062 1275.81" stroke="#000000" stroke-width="1.14583" stroke-miterlimit="8" fill="none" fill-rule="evenodd"/><path d="M1097.56 1237.91C1108.03 1247.73 1108.55 1264.17 1098.73 1274.64 1088.91 1285.1 1072.47 1285.63 1062 1275.81 1051.54 1265.99 1051.01 1249.55 1060.83 1239.08 1070.65 1228.61 1087.09 1228.09 1097.56 1237.91Z" stroke="#000000" stroke-width="1.14583" stroke-miterlimit="8" fill="none" fill-rule="evenodd"/><path d="M0-1.14583 218.711-1.14583 218.711 161.648 217.565 160.502 254.088 160.502 254.088 162.794 216.42 162.794 216.42 0 217.565 1.14583 0 1.14583ZM249.505 147.898 277.005 161.648 249.505 175.398Z" transform="matrix(1 0 0 -1 581 1271.65)"/><path d="M370 1173.83C370 1155.7 384.7 1141 402.834 1141L579.166 1141C597.3 1141 612 1155.7 612 1173.83L612 1305.17C612 1323.3 597.3 1338 579.166 1338L402.834 1338C384.7 1338 370 1323.3 370 1305.17Z" stroke="#7F7F7F" stroke-width="2.29167" stroke-miterlimit="8" fill="#FFFFFF" fill-rule="evenodd"/><path d="M410.083 1276.42 397.5 1226.5" stroke="#BFBFBF" stroke-width="4.58333" stroke-miterlimit="8" fill="none" fill-rule="evenodd"/><path d="M390 1218.5C390 1214.36 393.358 1211 397.5 1211 401.642 1211 405 1214.36 405 1218.5 405 1222.64 401.642 1226 397.5 1226 393.358 1226 390 1222.64 390 1218.5Z" fill="#3289BD" fill-rule="evenodd"/><path d="M453 1229.5C453 1225.36 456.358 1222 460.5 1222 464.642 1222 468 1225.36 468 1229.5 468 1233.64 464.642 1237 460.5 1237 456.358 1237 453 1233.64 453 1229.5Z" fill="#3289BD" fill-rule="evenodd"/><path d="M502 1262.5C502 1258.36 505.134 1255 509 1255 512.866 1255 516 1258.36 516 1262.5 516 1266.64 512.866 1270 509 1270 505.134 1270 502 1266.64 502 1262.5Z" fill="#3289BD" fill-rule="evenodd"/><path d="M563 1254C563 1250.13 566.134 1247 570 1247 573.866 1247 577 1250.13 577 1254 577 1257.87 573.866 1261 570 1261 566.134 1261 563 1257.87 563 1254Z" fill="#3289BD" fill-rule="evenodd"/><path d="M516 1203.5C516 1199.36 519.358 1196 523.5 1196 527.642 1196 531 1199.36 531 1203.5 531 1207.64 527.642 1211 523.5 1211 519.358 1211 516 1207.64 516 1203.5Z" fill="#3289BD" fill-rule="evenodd"/><path d="M494 1157C494 1153.13 497.358 1150 501.5 1150 505.642 1150 509 1153.13 509 1157 509 1160.87 505.642 1164 501.5 1164 497.358 1164 494 1160.87 494 1157Z" fill="#3289BD" fill-rule="evenodd"/><path d="M473 1307.5C473 1303.36 476.358 1300 480.5 1300 484.642 1300 488 1303.36 488 1307.5 488 1311.64 484.642 1315 480.5 1315 476.358 1315 473 1311.64 473 1307.5Z" fill="#3289BD" fill-rule="evenodd"/><path d="M403 1282.5C403 1278.36 406.134 1275 410 1275 413.866 1275 417 1278.36 417 1282.5 417 1286.64 413.866 1290 410 1290 406.134 1290 403 1286.64 403 1282.5Z" fill="#3289BD" fill-rule="evenodd"/><path d="M534 1315.5C534 1311.36 537.134 1308 541 1308 544.866 1308 548 1311.36 548 1315.5 548 1319.64 544.866 1323 541 1323 537.134 1323 534 1319.64 534 1315.5Z" fill="#3289BD" fill-rule="evenodd"/><path d="M473.45 1307.85 415.5 1288.5" stroke="#BFBFBF" stroke-width="4.58333" stroke-miterlimit="8" fill="none" fill-rule="evenodd"/><path d="M534.535 1315.4 488.5 1307.5" stroke="#BFBFBF" stroke-width="4.58333" stroke-miterlimit="8" fill="none" fill-rule="evenodd"/><path d="M514.5 1268.5 541.482 1308.37" stroke="#BFBFBF" stroke-width="4.58333" stroke-miterlimit="8" fill="none" fill-rule="evenodd"/><path d="M0 0 9.48353 46.7857" stroke="#BFBFBF" stroke-width="4.58333" stroke-miterlimit="8" fill="none" fill-rule="evenodd" transform="matrix(1 0 0 -1 514.5 1258.29)"/><path d="M565.59 1249.59 529.5 1209.5" stroke="#BFBFBF" stroke-width="4.58333" stroke-miterlimit="8" fill="none" fill-rule="evenodd"/><path d="M502.496 1263.31 466.5 1235.5" stroke="#BFBFBF" stroke-width="4.58333" stroke-miterlimit="8" fill="none" fill-rule="evenodd"/><path d="M480.481 1300.31 460.5 1237.5" stroke="#BFBFBF" stroke-width="4.58333" stroke-miterlimit="8" fill="none" fill-rule="evenodd"/><path d="M453.904 1230.14 405.5 1218.5" stroke="#BFBFBF" stroke-width="4.58333" stroke-miterlimit="8" fill="none" fill-rule="evenodd"/><path d="M0 0 93.8836 50.9053" stroke="#BFBFBF" stroke-width="4.58333" stroke-miterlimit="8" fill="none" fill-rule="evenodd" transform="matrix(-1 0 0 1 496.384 1162.5)"/><path d="M0 0 35.9965 60.4018" stroke="#BFBFBF" stroke-width="4.58333" stroke-miterlimit="8" fill="none" fill-rule="evenodd" transform="matrix(1 0 0 -1 466.5 1224.9)"/><path d="M519.132 1198.74 507.5 1162.5" stroke="#BFBFBF" stroke-width="4.58333" stroke-miterlimit="8" fill="none" fill-rule="evenodd"/><path d="M0 0 20.2414 15.9691" stroke="#BFBFBF" stroke-width="4.58333" stroke-miterlimit="8" fill="none" fill-rule="evenodd" transform="matrix(-1 0 0 1 551.741 1188.5)"/><path d="M551 1187.5C551 1183.36 554.358 1180 558.5 1180 562.642 1180 566 1183.36 566 1187.5 566 1191.64 562.642 1195 558.5 1195 554.358 1195 551 1191.64 551 1187.5Z" fill="#3289BD" fill-rule="evenodd"/><path d="M339 1205.83C339 1187.7 353.7 1173 371.834 1173L548.166 1173C566.3 1173 581 1187.7 581 1205.83L581 1337.17C581 1355.3 566.3 1370 548.166 1370L371.834 1370C353.7 1370 339 1355.3 339 1337.17Z" stroke="#7F7F7F" stroke-width="2.29167" stroke-miterlimit="8" fill="#FFFFFF" fill-rule="evenodd"/><path d="M379.083 1307.42 366.5 1257.5" stroke="#BFBFBF" stroke-width="4.58333" stroke-miterlimit="8" fill="none" fill-rule="evenodd"/><path d="M359 1250C359 1246.13 362.358 1243 366.5 1243 370.642 1243 374 1246.13 374 1250 374 1253.87 370.642 1257 366.5 1257 362.358 1257 359 1253.87 359 1250Z" fill="#3289BD" fill-rule="evenodd"/><path d="M422 1261.5C422 1257.36 425.358 1254 429.5 1254 433.642 1254 437 1257.36 437 1261.5 437 1265.64 433.642 1269 429.5 1269 425.358 1269 422 1265.64 422 1261.5Z" fill="#3289BD" fill-rule="evenodd"/><path d="M470 1294.5C470 1290.36 473.358 1287 477.5 1287 481.642 1287 485 1290.36 485 1294.5 485 1298.64 481.642 1302 477.5 1302 473.358 1302 470 1298.64 470 1294.5Z" fill="#3289BD" fill-rule="evenodd"/><path d="M532 1285.5C532 1281.36 535.134 1278 539 1278 542.866 1278 546 1281.36 546 1285.5 546 1289.64 542.866 1293 539 1293 535.134 1293 532 1289.64 532 1285.5Z" fill="#3289BD" fill-rule="evenodd"/><path d="M485 1235.5C485 1231.36 488.358 1228 492.5 1228 496.642 1228 500 1231.36 500 1235.5 500 1239.64 496.642 1243 492.5 1243 488.358 1243 485 1239.64 485 1235.5Z" fill="#3289BD" fill-rule="evenodd"/><path d="M463 1188.5C463 1184.36 466.358 1181 470.5 1181 474.642 1181 478 1184.36 478 1188.5 478 1192.64 474.642 1196 470.5 1196 466.358 1196 463 1192.64 463 1188.5Z" fill="#3289BD" fill-rule="evenodd"/><path d="M442 1339C442 1335.13 445.358 1332 449.5 1332 453.642 1332 457 1335.13 457 1339 457 1342.87 453.642 1346 449.5 1346 445.358 1346 442 1342.87 442 1339Z" fill="#3289BD" fill-rule="evenodd"/><path d="M371 1314.5C371 1310.36 374.358 1307 378.5 1307 382.642 1307 386 1310.36 386 1314.5 386 1318.64 382.642 1322 378.5 1322 374.358 1322 371 1318.64 371 1314.5Z" fill="#3289BD" fill-rule="evenodd"/><path d="M503 1347C503 1343.13 506.134 1340 510 1340 513.866 1340 517 1343.13 517 1347 517 1350.87 513.866 1354 510 1354 506.134 1354 503 1350.87 503 1347Z" fill="#3289BD" fill-rule="evenodd"/><path d="M442.45 1339.85 384.5 1320.5" stroke="#BFBFBF" stroke-width="4.58333" stroke-miterlimit="8" fill="none" fill-rule="evenodd"/><path d="M503.535 1347.4 457.5 1339.5" stroke="#BFBFBF" stroke-width="4.58333" stroke-miterlimit="8" fill="none" fill-rule="evenodd"/><path d="M483.5 1300.5 510.482 1340.37" stroke="#BFBFBF" stroke-width="4.58333" stroke-miterlimit="8" fill="none" fill-rule="evenodd"/><path d="M0 0 9.48353 46.7857" stroke="#BFBFBF" stroke-width="4.58333" stroke-miterlimit="8" fill="none" fill-rule="evenodd" transform="matrix(1 0 0 -1 483.5 1290.29)"/><path d="M534.59 1280.59 498.5 1240.5" stroke="#BFBFBF" stroke-width="4.58333" stroke-miterlimit="8" fill="none" fill-rule="evenodd"/><path d="M470.496 1295.31 434.5 1267.5" stroke="#BFBFBF" stroke-width="4.58333" stroke-miterlimit="8" fill="none" fill-rule="evenodd"/><path d="M449.481 1332.31 429.5 1269.5" stroke="#BFBFBF" stroke-width="4.58333" stroke-miterlimit="8" fill="none" fill-rule="evenodd"/><path d="M422.904 1262.14 374.5 1250.5" stroke="#BFBFBF" stroke-width="4.58333" stroke-miterlimit="8" fill="none" fill-rule="evenodd"/><path d="M0 0 93.8836 50.9053" stroke="#BFBFBF" stroke-width="4.58333" stroke-miterlimit="8" fill="none" fill-rule="evenodd" transform="matrix(-1 0 0 1 465.384 1194.5)"/><path d="M0 0 35.9965 60.4018" stroke="#BFBFBF" stroke-width="4.58333" stroke-miterlimit="8" fill="none" fill-rule="evenodd" transform="matrix(1 0 0 -1 434.5 1256.9)"/><path d="M488.132 1230.74 476.5 1194.5" stroke="#BFBFBF" stroke-width="4.58333" stroke-miterlimit="8" fill="none" fill-rule="evenodd"/><path d="M0 0 20.2414 15.9691" stroke="#BFBFBF" stroke-width="4.58333" stroke-miterlimit="8" fill="none" fill-rule="evenodd" transform="matrix(-1 0 0 1 520.741 1219.5)"/><path d="M520 1219.5C520 1215.36 523.358 1212 527.5 1212 531.642 1212 535 1215.36 535 1219.5 535 1223.64 531.642 1227 527.5 1227 523.358 1227 520 1223.64 520 1219.5Z" fill="#3289BD" fill-rule="evenodd"/><path d="M305 1236.83C305 1218.7 319.7 1204 337.834 1204L515.166 1204C533.3 1204 548 1218.7 548 1236.83L548 1368.17C548 1386.3 533.3 1401 515.166 1401L337.834 1401C319.7 1401 305 1386.3 305 1368.17Z" stroke="#7F7F7F" stroke-width="2.29167" stroke-miterlimit="8" fill="#FFFFFF" fill-rule="evenodd"/><path d="M346.083 1338.42 333.5 1288.5" stroke="#FF0000" stroke-width="4.58333" stroke-miterlimit="8" fill="none" fill-rule="evenodd"/><path d="M325 1281C325 1277.13 328.358 1274 332.5 1274 336.642 1274 340 1277.13 340 1281 340 1284.87 336.642 1288 332.5 1288 328.358 1288 325 1284.87 325 1281Z" fill="#3289BD" fill-rule="evenodd"/><path d="M388 1292.5C388 1288.36 391.358 1285 395.5 1285 399.642 1285 403 1288.36 403 1292.5 403 1296.64 399.642 1300 395.5 1300 391.358 1300 388 1296.64 388 1292.5Z" fill="#3289BD" fill-rule="evenodd"/><path d="M437 1325.5C437 1321.36 440.358 1318 444.5 1318 448.642 1318 452 1321.36 452 1325.5 452 1329.64 448.642 1333 444.5 1333 440.358 1333 437 1329.64 437 1325.5Z" fill="#3289BD" fill-rule="evenodd"/><path d="M498 1316.5C498 1312.36 501.358 1309 505.5 1309 509.642 1309 513 1312.36 513 1316.5 513 1320.64 509.642 1324 505.5 1324 501.358 1324 498 1320.64 498 1316.5Z" fill="#3289BD" fill-rule="evenodd"/><path d="M452 1266.5C452 1262.36 455.134 1259 459 1259 462.866 1259 466 1262.36 466 1266.5 466 1270.64 462.866 1274 459 1274 455.134 1274 452 1270.64 452 1266.5Z" fill="#3289BD" fill-rule="evenodd"/><path d="M429 1219.5C429 1215.36 432.358 1212 436.5 1212 440.642 1212 444 1215.36 444 1219.5 444 1223.64 440.642 1227 436.5 1227 432.358 1227 429 1223.64 429 1219.5Z" fill="#3289BD" fill-rule="evenodd"/><path d="M408 1370C408 1366.13 411.358 1363 415.5 1363 419.642 1363 423 1366.13 423 1370 423 1373.87 419.642 1377 415.5 1377 411.358 1377 408 1373.87 408 1370Z" fill="#3289BD" fill-rule="evenodd"/><path d="M338 1345.5C338 1341.36 341.134 1338 345 1338 348.866 1338 352 1341.36 352 1345.5 352 1349.64 348.866 1353 345 1353 341.134 1353 338 1349.64 338 1345.5Z" fill="#3289BD" fill-rule="evenodd"/><path d="M469 1378C469 1374.13 472.358 1371 476.5 1371 480.642 1371 484 1374.13 484 1378 484 1381.87 480.642 1385 476.5 1385 472.358 1385 469 1381.87 469 1378Z" fill="#3289BD" fill-rule="evenodd"/><path d="M408.45 1370.85 350.5 1351.5" stroke="#FF0000" stroke-width="4.58333" stroke-miterlimit="8" fill="none" fill-rule="evenodd"/><path d="M469.535 1378.4 423.5 1370.5" stroke="#FF0000" stroke-width="4.58333" stroke-miterlimit="8" fill="none" fill-rule="evenodd"/><path d="M449.5 1331.5 476.482 1371.37" stroke="#FF0000" stroke-width="4.58333" stroke-miterlimit="8" fill="none" fill-rule="evenodd"/><path d="M0 0 9.48353 46.7857" stroke="#FF0000" stroke-width="4.58333" stroke-miterlimit="8" fill="none" fill-rule="evenodd" transform="matrix(1 0 0 -1 449.5 1321.29)"/><path d="M500.59 1312.59 464.5 1272.5" stroke="#FF0000" stroke-width="4.58333" stroke-miterlimit="8" fill="none" fill-rule="evenodd"/><path d="M437.496 1326.31 401.5 1298.5" stroke="#FF0000" stroke-width="4.58333" stroke-miterlimit="8" fill="none" fill-rule="evenodd"/><path d="M416.481 1363.31 396.5 1300.5" stroke="#FF0000" stroke-width="4.58333" stroke-miterlimit="8" fill="none" fill-rule="evenodd"/><path d="M388.904 1293.14 340.5 1281.5" stroke="#FF0000" stroke-width="4.58333" stroke-miterlimit="8" fill="none" fill-rule="evenodd"/><path d="M0 0 93.8836 50.9053" stroke="#FF0000" stroke-width="4.58333" stroke-miterlimit="8" fill="none" fill-rule="evenodd" transform="matrix(-1 0 0 1 432.384 1225.5)"/><path d="M0 0 35.9965 60.4018" stroke="#FF0000" stroke-width="4.58333" stroke-miterlimit="8" fill="none" fill-rule="evenodd" transform="matrix(1 0 0 -1 401.5 1287.9)"/><path d="M454.132 1261.74 442.5 1225.5" stroke="#FF0000" stroke-width="4.58333" stroke-miterlimit="8" fill="none" fill-rule="evenodd"/><path d="M0 0 20.2414 15.9691" stroke="#FF0000" stroke-width="4.58333" stroke-miterlimit="8" fill="none" fill-rule="evenodd" transform="matrix(-1 0 0 1 486.741 1250.5)"/><path d="M486 1250.5C486 1246.36 489.358 1243 493.5 1243 497.642 1243 501 1246.36 501 1250.5 501 1254.64 497.642 1258 493.5 1258 489.358 1258 486 1254.64 486 1250.5Z" fill="#3289BD" fill-rule="evenodd"/><text font-family="Arial,Arial_MSFontService,sans-serif" font-weight="400" font-size="64" transform="matrix(1 0 0 1 387.706 1107)">Input</text><path d="M581.006 1269.85 635.161 1270.15 635.148 1272.44 580.994 1272.15ZM630.645 1257.52 658.071 1271.41 630.497 1285.02Z"/><path d="M755.5 1055C766.27 1055 775 1063.73 775 1074.5L775 1468.5C775 1479.27 766.27 1488 755.5 1488L677.5 1488C666.731 1488 658 1479.27 658 1468.5L658 1074.5C658 1063.73 666.731 1055 677.5 1055Z" fill="#F2F2F2" fill-rule="evenodd"/><text font-family="Arial,Arial_MSFontService,sans-serif" font-weight="400" font-size="64" transform="matrix(6.12323e-17 1 -1 6.12323e-17 693.242 1099)">Aggregation</text><path d="M0.00450373-1.14582 55.0408-0.929501 55.0318 1.36215-0.00450373 1.14582ZM50.507-13.5516 77.9528 0.306398 50.3989 13.9482Z" transform="matrix(1 0 0 -1 1106 1256.31)"/><path d="M2041.81 1722C2008.78 1722 1982 1695.22 1982 1662.19L1982 914.81C1982 881.778 2008.78 855 2041.81 855L2679.19 855C2712.22 855 2739 881.778 2739 914.81L2739 1662.19C2739 1695.22 2712.22 1722 2679.19 1722Z" fill="#F2F2F2" fill-rule="evenodd"/><text font-family="Arial,Arial_MSFontService,sans-serif" font-weight="400" font-size="64" transform="matrix(-1.83697e-16 -1 1 -1.83697e-16 2051.25 1540)">Adaptive Attention</text><rect x="2255.5" y="1237.5" width="318" height="140" stroke="#000000" stroke-width="4.58333" stroke-miterlimit="8" fill="#DCEAF7"/><text font-family="Arial,Arial_MSFontService,sans-serif" font-weight="400" font-size="50" transform="matrix(1 0 0 1 2302.17 1296)">Learnable </text><text font-family="Arial,Arial_MSFontService,sans-serif" font-weight="400" font-size="50" transform="matrix(1 0 0 1 2311.91 1357)">Similarity</text><rect x="2165" y="1539" width="39.0002" height="39.0002" stroke="#A6A6A6" stroke-width="2.29167" stroke-miterlimit="8" fill="#D9D9D9" fill-opacity="0.388235"/><rect x="2165" y="1491" width="39.0002" height="39.0002" stroke="#A6A6A6" stroke-width="2.29167" stroke-miterlimit="8" fill="#D9D9D9" fill-opacity="0.388235"/><rect x="2165" y="1443" width="39.0002" height="38.9999" stroke="#A6A6A6" stroke-width="2.29167" stroke-miterlimit="8" fill="#D9D9D9" fill-opacity="0.388235"/><rect x="2212" y="1539" width="39.9998" height="39.0002" stroke="#A6A6A6" stroke-width="2.29167" stroke-miterlimit="8" fill="#D9D9D9" fill-opacity="0.388235"/><rect x="2212" y="1491" width="39.9998" height="39.0002" stroke="#A6A6A6" stroke-width="2.29167" stroke-miterlimit="8" fill="#D9D9D9" fill-opacity="0.388235"/><rect x="2212" y="1443" width="39.9998" height="38.9999" stroke="#A6A6A6" stroke-width="2.29167" stroke-miterlimit="8" fill="#D9D9D9" fill-opacity="0.388235"/><rect x="2260" y="1539" width="39.9998" height="39.0002" stroke="#A6A6A6" stroke-width="2.29167" stroke-miterlimit="8" fill="#D9D9D9" fill-opacity="0.388235"/><rect x="2260" y="1491" width="39.9998" height="39.0002" stroke="#A6A6A6" stroke-width="2.29167" stroke-miterlimit="8" fill="#D9D9D9" fill-opacity="0.388235"/><rect x="2260" y="1443" width="39.9998" height="38.9999" stroke="#A6A6A6" stroke-width="2.29167" stroke-miterlimit="8" fill="#D9D9D9" fill-opacity="0.388235"/><rect x="2189" y="1562" width="38.9998" height="39.9999" stroke="#A6A6A6" stroke-width="2.29167" stroke-miterlimit="8" fill="#D9D9D9" fill-opacity="0.388235"/><rect x="2189" y="1514" width="38.9998" height="40.0002" stroke="#A6A6A6" stroke-width="2.29167" stroke-miterlimit="8" fill="#D9D9D9" fill-opacity="0.388235"/><rect x="2189" y="1467" width="38.9998" height="38.9999" stroke="#A6A6A6" stroke-width="2.29167" stroke-miterlimit="8" fill="#D9D9D9" fill-opacity="0.388235"/><rect x="2236" y="1562" width="39.9998" height="39.9999" stroke="#A6A6A6" stroke-width="2.29167" stroke-miterlimit="8" fill="#D9D9D9" fill-opacity="0.388235"/><rect x="2236" y="1514" width="39.9998" height="40.0002" stroke="#A6A6A6" stroke-width="2.29167" stroke-miterlimit="8" fill="#D9D9D9" fill-opacity="0.388235"/><rect x="2236" y="1467" width="39.9998" height="38.9999" stroke="#A6A6A6" stroke-width="2.29167" stroke-miterlimit="8" fill="#D9D9D9" fill-opacity="0.388235"/><rect x="2284" y="1562" width="40.0002" height="39.9999" stroke="#A6A6A6" stroke-width="2.29167" stroke-miterlimit="8" fill="#D9D9D9" fill-opacity="0.388235"/><rect x="2284" y="1514" width="40.0002" height="40.0002" stroke="#A6A6A6" stroke-width="2.29167" stroke-miterlimit="8" fill="#D9D9D9" fill-opacity="0.388235"/><rect x="2284" y="1467" width="40.0002" height="38.9999" stroke="#A6A6A6" stroke-width="2.29167" stroke-miterlimit="8" fill="#D9D9D9" fill-opacity="0.388235"/><rect x="2211" y="1584" width="39.9998" height="39.9999" stroke="#000000" stroke-width="2.29167" stroke-miterlimit="8" fill="#D1D1D1"/><rect x="2211" y="1536" width="39.9998" height="40.0002" stroke="#000000" stroke-width="2.29167" stroke-miterlimit="8" fill="#D1D1D1"/><rect x="2211" y="1489" width="39.9998" height="38.9999" stroke="#000000" stroke-width="2.29167" stroke-miterlimit="8" fill="#D1D1D1"/><rect x="2259" y="1584" width="39.9998" height="39.9999" stroke="#000000" stroke-width="2.29167" stroke-miterlimit="8" fill="#D1D1D1"/><rect x="2259" y="1536" width="39.9998" height="40.0002" stroke="#000000" stroke-width="2.29167" stroke-miterlimit="8" fill="#D1D1D1"/><rect x="2259" y="1489" width="39.9998" height="38.9999" stroke="#000000" stroke-width="2.29167" stroke-miterlimit="8" fill="#D1D1D1"/><rect x="2307" y="1584" width="39.0002" height="39.9999" stroke="#000000" stroke-width="2.29167" stroke-miterlimit="8" fill="#D1D1D1"/><rect x="2307" y="1536" width="39.0002" height="40.0002" stroke="#000000" stroke-width="2.29167" stroke-miterlimit="8" fill="#D1D1D1"/><rect x="2307" y="1489" width="39.0002" height="38.9999" stroke="#000000" stroke-width="2.29167" stroke-miterlimit="8" fill="#D1D1D1"/><path d="M0.813564-0.806875 55.5109 54.3439 53.8838 55.9576-0.813564 0.806875ZM57.9784 45.4415 70.8349 71.4221 44.9614 58.3515Z" fill="#7F7F7F" transform="matrix(-1.83697e-16 -1 -1 1.83697e-16 2222.42 1499.84)"/><rect x="2300" y="977" width="38.9998" height="40.0002" stroke="#A6A6A6" stroke-width="2.29167" stroke-miterlimit="8" fill="#D9D9D9" fill-opacity="0.388235"/><rect x="2300" y="929" width="38.9998" height="39.9999" stroke="#A6A6A6" stroke-width="2.29167" stroke-miterlimit="8" fill="#D9D9D9" fill-opacity="0.388235"/><rect x="2300" y="881" width="38.9998" height="39.9999" stroke="#A6A6A6" stroke-width="2.29167" stroke-miterlimit="8" fill="#D9D9D9" fill-opacity="0.388235"/><rect x="2347" y="977" width="39.9998" height="40.0002" stroke="#A6A6A6" stroke-width="2.29167" stroke-miterlimit="8" fill="#D9D9D9" fill-opacity="0.388235"/><rect x="2347" y="929" width="39.9998" height="39.9999" stroke="#A6A6A6" stroke-width="2.29167" stroke-miterlimit="8" fill="#D9D9D9" fill-opacity="0.388235"/><rect x="2347" y="881" width="39.9998" height="39.9999" stroke="#A6A6A6" stroke-width="2.29167" stroke-miterlimit="8" fill="#D9D9D9" fill-opacity="0.388235"/><rect x="2395" y="977" width="40.0002" height="40.0002" stroke="#A6A6A6" stroke-width="2.29167" stroke-miterlimit="8" fill="#D9D9D9" fill-opacity="0.388235"/><rect x="2395" y="929" width="40.0002" height="39.9999" stroke="#A6A6A6" stroke-width="2.29167" stroke-miterlimit="8" fill="#D9D9D9" fill-opacity="0.388235"/><rect x="2395" y="881" width="40.0002" height="39.9999" stroke="#A6A6A6" stroke-width="2.29167" stroke-miterlimit="8" fill="#D9D9D9" fill-opacity="0.388235"/><rect x="2324" y="1001" width="38.9998" height="38.9998" stroke="#A6A6A6" stroke-width="2.29167" stroke-miterlimit="8" fill="#D9D9D9" fill-opacity="0.388235"/><rect x="2324" y="953" width="38.9998" height="39.0002" stroke="#A6A6A6" stroke-width="2.29167" stroke-miterlimit="8" fill="#D9D9D9" fill-opacity="0.388235"/><rect x="2324" y="905" width="38.9998" height="39.9999" stroke="#A6A6A6" stroke-width="2.29167" stroke-miterlimit="8" fill="#D9D9D9" fill-opacity="0.388235"/><rect x="2371" y="1001" width="40.0002" height="38.9998" stroke="#A6A6A6" stroke-width="2.29167" stroke-miterlimit="8" fill="#D9D9D9" fill-opacity="0.388235"/><rect x="2371" y="953" width="40.0002" height="39.0002" stroke="#A6A6A6" stroke-width="2.29167" stroke-miterlimit="8" fill="#D9D9D9" fill-opacity="0.388235"/><rect x="2371" y="905" width="40.0002" height="39.9999" stroke="#A6A6A6" stroke-width="2.29167" stroke-miterlimit="8" fill="#D9D9D9" fill-opacity="0.388235"/><rect x="2419" y="1001" width="39.9998" height="38.9998" stroke="#A6A6A6" stroke-width="2.29167" stroke-miterlimit="8" fill="#D9D9D9" fill-opacity="0.388235"/><rect x="2419" y="953" width="39.9998" height="39.0002" stroke="#A6A6A6" stroke-width="2.29167" stroke-miterlimit="8" fill="#D9D9D9" fill-opacity="0.388235"/><rect x="2419" y="905" width="39.9998" height="39.9999" stroke="#A6A6A6" stroke-width="2.29167" stroke-miterlimit="8" fill="#D9D9D9" fill-opacity="0.388235"/><rect x="2346" y="1023" width="39.9998" height="38.9998" stroke="#000000" stroke-width="2.29167" stroke-miterlimit="8" fill="#FF0000"/><rect x="2346" y="975" width="39.9998" height="39.0002" stroke="#000000" stroke-width="2.29167" stroke-miterlimit="8" fill="#FFC000"/><rect x="2346" y="927" width="39.9998" height="39.9999" stroke="#000000" stroke-width="2.29167" stroke-miterlimit="8" fill="#F7EB3C"/><rect x="2394" y="1023" width="40.0002" height="38.9998" stroke="#000000" stroke-width="2.29167" stroke-miterlimit="8" fill="#00B050"/><rect x="2394" y="975" width="40.0002" height="39.0002" stroke="#000000" stroke-width="2.29167" stroke-miterlimit="8" fill="#0000FF"/><rect x="2394" y="927" width="40.0002" height="39.9999" stroke="#000000" stroke-width="2.29167" stroke-miterlimit="8" fill="#002060"/><rect x="2442" y="1023" width="38.9998" height="38.9998" stroke="#000000" stroke-width="2.29167" stroke-miterlimit="8" fill="#7030A0"/><rect x="2442" y="975" width="38.9998" height="39.0002" stroke="#000000" stroke-width="2.29167" stroke-miterlimit="8" fill="#A6CAEC"/><rect x="2442" y="927" width="38.9998" height="39.9999" stroke="#000000" stroke-width="2.29167" stroke-miterlimit="8" fill="#F6CEB1"/><text fill="#7F7F7F" font-family="Arial,Arial_MSFontService,sans-serif" font-weight="400" font-size="50" transform="matrix(1 0 0 1 2216.42 965)">time</text><path d="M0.813564-0.806875 55.5109 54.3439 53.8838 55.9576-0.813564 0.806875ZM57.9784 45.4415 70.8349 71.4221 44.9614 58.3515Z" fill="#7F7F7F" transform="matrix(-1.83697e-16 -1 -1 1.83697e-16 2357.42 937.835)"/><path d="M2413.39 1237 2412.92 1084.92 2415.22 1084.91 2415.68 1237ZM2400.33 1089.54 2414 1062 2427.83 1089.46Z"/><rect x="2508" y="1562" width="38.9998" height="39.9999" stroke="#000000" stroke-width="2.29167" stroke-miterlimit="8" fill="#FFC000"/><rect x="2508" y="1515" width="38.9998" height="39.0002" stroke="#000000" stroke-width="2.29167" stroke-miterlimit="8" fill="#FFC000"/><rect x="2508" y="1467" width="38.9998" height="38.9999" stroke="#000000" stroke-width="2.29167" stroke-miterlimit="8" fill="#FFC000"/><rect x="2556" y="1562" width="38.9998" height="39.9999" stroke="#000000" stroke-width="2.29167" stroke-miterlimit="8" fill="#FFC000"/><rect x="2556" y="1515" width="38.9998" height="39.0002" stroke="#000000" stroke-width="2.29167" stroke-miterlimit="8" fill="#FFC000"/><rect x="2556" y="1467" width="38.9998" height="38.9999" stroke="#000000" stroke-width="2.29167" stroke-miterlimit="8" fill="#FFC000"/><rect x="2603" y="1562" width="40.0002" height="39.9999" stroke="#000000" stroke-width="2.29167" stroke-miterlimit="8" fill="#FFC000"/><rect x="2603" y="1515" width="40.0002" height="39.0002" stroke="#000000" stroke-width="2.29167" stroke-miterlimit="8" fill="#FFC000"/><rect x="2603" y="1467" width="40.0002" height="38.9999" stroke="#000000" stroke-width="2.29167" stroke-miterlimit="8" fill="#FFC000"/><text font-family="Arial,Arial_MSFontService,sans-serif" font-weight="400" font-size="46" transform="matrix(1 0 0 1 2457.33 1678)">Target input</text><text font-family="Malgun Gothic,Malgun Gothic_MSFontService,sans-serif" font-weight="400" font-size="46" transform="matrix(1 0 0 1 2122.2 1678)">Shifted input</text><path d="M2254.85 1466.21 2254.85 1420.46 2414.42 1420.46 2413.27 1421.6 2413.27 1399.92 2415.57 1399.92 2415.57 1422.75 2256 1422.75 2257.15 1421.6 2257.15 1466.21ZM2400.67 1404.5 2414.42 1377 2428.17 1404.5Z"/><rect x="2255.5" y="1123.5" width="319" height="81.0001" stroke="#000000" stroke-width="4.58333" stroke-miterlimit="8" fill="#DCEAF7"/><text font-family="Arial,Arial_MSFontService,sans-serif" font-weight="400" font-size="50" transform="matrix(1 0 0 1 2322.74 1182)">Softmax</text><text fill="#7F7F7F" font-family="Arial,Arial_MSFontService,sans-serif" font-weight="400" font-size="50" transform="matrix(1 0 0 1 2080.66 1531)">time</text><path d="M0-1.14583 45.8361-1.14583 45.8361 160.844 44.6903 159.698 66.4637 159.698 66.4637 161.99 43.5445 161.99 43.5445 0 44.6903 1.14583 0 1.14583ZM61.8804 147.094 89.3804 160.844 61.8804 174.594Z" transform="matrix(-1.83697e-16 -1 -1 1.83697e-16 2574.84 1466.38)"/><path d="M2739.03 1286.85 2776.75 1287.98 2776.68 1290.27 2738.97 1289.15ZM2772.55 1275.25 2799.62 1289.81 2771.72 1302.73Z"/><path d="M1585 776.854 2902.38 776.854 2902.38 1077.69 2900.09 1077.69 2900.09 778 2901.24 779.146 1585 779.146ZM2914.99 1073.1 2901.24 1100.6 2887.49 1073.1Z"/><path d="M1106 1254.85 1129.36 1254.85 1129.36 1776.47 1128.22 1775.32 2360.56 1775.32 2359.42 1776.47 2359.42 1744.39 2361.71 1744.39 2361.71 1777.62 1127.07 1777.62 1127.07 1256 1128.22 1257.15 1106 1257.15ZM2346.81 1748.97 2360.56 1721.47 2374.31 1748.97Z"/></g></svg>
